name rise37.2698peak67.6939fall79.5734.mot
datacolumns 19
datarows 27
range 23.50824500000000 23.55158700000000
endheader
time	ground_force1_vx	ground_force1_vy	ground_force1_vz	ground_force1_px	ground_force1_py	ground_force1_pz	ground_force2_vx	ground_force2_vy	ground_force2_vz	ground_force2_px	ground_force2_py	ground_force2_pz	ground_torque1_x	ground_torque1_y	ground_torque1_z	ground_torque2_x	ground_torque2_y	ground_torque2_z	
23.50824500000000	62.13773100000000	764.61138300000005	49.31468300000000	0.34968100000000	0.00000000000000	0.09046300000000	0.00000000000000	0.00000000000000	0.00000000000000	0.00000000000000	0.00000000000000	0.00000000000000	0.00000000000000	22.63090500000000	0.00000000000000	0.00000000000000	0.00000000000000	0.00000000000000	
23.50991100000000	61.50225400000000	767.83777099999998	49.56418600000000	0.34885000000000	0.00000000000000	0.09047200000000	0.00000000000000	0.00000000000000	0.00000000000000	0.00000000000000	0.00000000000000	0.00000000000000	0.00000000000000	22.78231400000000	0.00000000000000	0.00000000000000	0.00000000000000	0.00000000000000	
23.51158700000000	60.86542100000000	770.93118100000004	49.81482600000000	0.34803700000000	0.00000000000000	0.09048200000000	0.00000000000000	0.00000000000000	0.00000000000000	0.00000000000000	0.00000000000000	0.00000000000000	0.00000000000000	22.93559400000000	0.00000000000000	0.00000000000000	0.00000000000000	0.00000000000000	
23.51324800000000	60.22769500000000	773.88905099999999	50.06590800000000	0.34724100000000	0.00000000000000	0.09049200000000	0.00000000000000	0.00000000000000	0.00000000000000	0.00000000000000	0.00000000000000	0.00000000000000	0.00000000000000	23.09021600000000	0.00000000000000	0.00000000000000	0.00000000000000	0.00000000000000	
23.51491600000000	59.58949700000000	776.70896100000004	50.31667200000000	0.34646100000000	0.00000000000000	0.09050100000000	0.00000000000000	0.00000000000000	0.00000000000000	0.00000000000000	0.00000000000000	0.00000000000000	0.00000000000000	23.24561300000000	0.00000000000000	0.00000000000000	0.00000000000000	0.00000000000000	
23.51657900000000	58.95120600000000	779.38864100000001	50.56629800000000	0.34569500000000	0.00000000000000	0.09051100000000	0.00000000000000	0.00000000000000	0.00000000000000	0.00000000000000	0.00000000000000	0.00000000000000	0.00000000000000	23.40117800000000	0.00000000000000	0.00000000000000	0.00000000000000	0.00000000000000	
23.51824200000000	58.31316100000000	781.92598899999996	50.81391300000000	0.34494200000000	0.00000000000000	0.09052100000000	0.00000000000000	0.00000000000000	0.00000000000000	0.00000000000000	0.00000000000000	0.00000000000000	0.00000000000000	23.55627100000000	0.00000000000000	0.00000000000000	0.00000000000000	0.00000000000000	
23.51991000000000	57.67566600000000	784.31907899999999	51.05859900000000	0.34419900000000	0.00000000000000	0.09053100000000	0.00000000000000	0.00000000000000	0.00000000000000	0.00000000000000	0.00000000000000	0.00000000000000	0.00000000000000	23.71021900000000	0.00000000000000	0.00000000000000	0.00000000000000	0.00000000000000	
23.52159300000000	57.03898800000000	786.56617500000004	51.29939500000000	0.34346600000000	0.00000000000000	0.09054100000000	0.00000000000000	0.00000000000000	0.00000000000000	0.00000000000000	0.00000000000000	0.00000000000000	0.00000000000000	23.86232900000000	0.00000000000000	0.00000000000000	0.00000000000000	0.00000000000000	
23.52324800000000	56.40336300000000	788.66574200000002	51.53531000000000	0.34274100000000	0.00000000000000	0.09055100000000	0.00000000000000	0.00000000000000	0.00000000000000	0.00000000000000	0.00000000000000	0.00000000000000	0.00000000000000	24.01188200000000	0.00000000000000	0.00000000000000	0.00000000000000	0.00000000000000	
23.52491200000000	55.76899600000000	790.61645399999998	51.76532700000000	0.34202100000000	0.00000000000000	0.09056100000000	0.00000000000000	0.00000000000000	0.00000000000000	0.00000000000000	0.00000000000000	0.00000000000000	0.00000000000000	24.15814700000000	0.00000000000000	0.00000000000000	0.00000000000000	0.00000000000000	
23.52658100000000	55.13606700000000	792.41720399999997	51.98841200000000	0.34130500000000	0.00000000000000	0.09057100000000	0.00000000000000	0.00000000000000	0.00000000000000	0.00000000000000	0.00000000000000	0.00000000000000	0.00000000000000	24.30038000000000	0.00000000000000	0.00000000000000	0.00000000000000	0.00000000000000	
23.52824700000000	54.50472800000000	794.06711199999995	52.20351800000000	0.34059200000000	0.00000000000000	0.09058100000000	0.00000000000000	0.00000000000000	0.00000000000000	0.00000000000000	0.00000000000000	0.00000000000000	0.00000000000000	24.43783100000000	0.00000000000000	0.00000000000000	0.00000000000000	0.00000000000000	
23.52991500000000	53.87511000000000	795.56553599999995	52.40959700000000	0.33987800000000	0.00000000000000	0.09059100000000	0.00000000000000	0.00000000000000	0.00000000000000	0.00000000000000	0.00000000000000	0.00000000000000	0.00000000000000	24.56975000000000	0.00000000000000	0.00000000000000	0.00000000000000	0.00000000000000	
23.53159900000000	53.24732400000000	796.91206999999997	52.60560600000000	0.33916400000000	0.00000000000000	0.09060100000000	0.00000000000000	0.00000000000000	0.00000000000000	0.00000000000000	0.00000000000000	0.00000000000000	0.00000000000000	24.69538900000000	0.00000000000000	0.00000000000000	0.00000000000000	0.00000000000000	
23.53324500000000	52.62146400000000	798.10656100000006	52.79051300000000	0.33844600000000	0.00000000000000	0.09061200000000	0.00000000000000	0.00000000000000	0.00000000000000	0.00000000000000	0.00000000000000	0.00000000000000	0.00000000000000	24.81401000000000	0.00000000000000	0.00000000000000	0.00000000000000	0.00000000000000	
23.53490900000000	51.99760700000000	799.14910199999997	52.96330600000000	0.33772400000000	0.00000000000000	0.09062200000000	0.00000000000000	0.00000000000000	0.00000000000000	0.00000000000000	0.00000000000000	0.00000000000000	0.00000000000000	24.92488700000000	0.00000000000000	0.00000000000000	0.00000000000000	0.00000000000000	
23.53660100000000	51.37581800000000	800.04004299999997	53.12299700000000	0.33699400000000	0.00000000000000	0.09063200000000	0.00000000000000	0.00000000000000	0.00000000000000	0.00000000000000	0.00000000000000	0.00000000000000	0.00000000000000	25.02731400000000	0.00000000000000	0.00000000000000	0.00000000000000	0.00000000000000	
23.53825000000000	50.75614900000000	800.77999100000000	53.26863400000000	0.33625600000000	0.00000000000000	0.09064300000000	0.00000000000000	0.00000000000000	0.00000000000000	0.00000000000000	0.00000000000000	0.00000000000000	0.00000000000000	25.12060800000000	0.00000000000000	0.00000000000000	0.00000000000000	0.00000000000000	
23.53991500000000	50.13864700000000	801.36981200000002	53.39930400000000	0.33550800000000	0.00000000000000	0.09065300000000	0.00000000000000	0.00000000000000	0.00000000000000	0.00000000000000	0.00000000000000	0.00000000000000	0.00000000000000	25.20411100000000	0.00000000000000	0.00000000000000	0.00000000000000	0.00000000000000	
23.54158100000000	49.52334900000000	801.81062699999995	53.51414100000000	0.33474700000000	0.00000000000000	0.09066300000000	0.00000000000000	0.00000000000000	0.00000000000000	0.00000000000000	0.00000000000000	0.00000000000000	0.00000000000000	25.27720200000000	0.00000000000000	0.00000000000000	0.00000000000000	0.00000000000000	
23.54324500000000	48.91028700000000	802.10381900000004	53.61232800000000	0.33397300000000	0.00000000000000	0.09067400000000	0.00000000000000	0.00000000000000	0.00000000000000	0.00000000000000	0.00000000000000	0.00000000000000	0.00000000000000	25.33929200000000	0.00000000000000	0.00000000000000	0.00000000000000	0.00000000000000	
23.54490900000000	48.29949000000000	802.25102600000002	53.69311100000000	0.33318300000000	0.00000000000000	0.09068500000000	0.00000000000000	0.00000000000000	0.00000000000000	0.00000000000000	0.00000000000000	0.00000000000000	0.00000000000000	25.38983400000000	0.00000000000000	0.00000000000000	0.00000000000000	0.00000000000000	
23.54659100000000	47.69098600000000	802.25413900000001	53.75579500000000	0.33237600000000	0.00000000000000	0.09069500000000	0.00000000000000	0.00000000000000	0.00000000000000	0.00000000000000	0.00000000000000	0.00000000000000	0.00000000000000	25.42832600000000	0.00000000000000	0.00000000000000	0.00000000000000	0.00000000000000	
23.54824600000000	47.08480200000000	802.11529700000006	53.79975400000000	0.33155100000000	0.00000000000000	0.09070600000000	0.00000000000000	0.00000000000000	0.00000000000000	0.00000000000000	0.00000000000000	0.00000000000000	0.00000000000000	25.45431100000000	0.00000000000000	0.00000000000000	0.00000000000000	0.00000000000000	
23.54991000000000	46.48096500000000	801.83688700000005	53.82443500000000	0.33070500000000	0.00000000000000	0.09071700000000	0.00000000000000	0.00000000000000	0.00000000000000	0.00000000000000	0.00000000000000	0.00000000000000	0.00000000000000	25.46738600000000	0.00000000000000	0.00000000000000	0.00000000000000	0.00000000000000	
23.55158700000000	45.87950700000000	801.42153299999995	53.82936200000000	0.32983800000000	0.00000000000000	0.09072800000000	0.00000000000000	0.00000000000000	0.00000000000000	0.00000000000000	0.00000000000000	0.00000000000000	0.00000000000000	25.46719900000000	0.00000000000000	0.00000000000000	0.00000000000000	0.00000000000000	
